<svg width="320" height="80" viewBox="0 0 320 80" fill="none" xmlns="http://www.w3.org/2000/svg">
<path d="M89.9367 58.0048C95.9715 58.0048 100.864 62.8977 100.864 68.9325C100.864 74.9671 95.9713 79.859 89.9367 79.859H30.2595C24.2249 79.859 19.3321 74.9671 19.3318 68.9325C19.3318 62.8977 24.2248 58.0048 30.2595 58.0048H89.9367Z" fill="#101010"/>
<path d="M81.5314 29.0735C87.5661 29.0735 92.459 33.9652 92.459 40C92.459 46.0348 87.5661 50.9265 81.5314 50.9265H21.8542C15.8194 50.9265 10.9265 46.0348 10.9265 40C10.9265 33.9652 15.8194 29.0735 21.8542 29.0735H81.5314Z" fill="#394F49"/>
<path d="M70.6048 0.140991C76.6394 0.141009 81.5311 5.03296 81.5313 11.0675C81.5313 17.1023 76.6396 21.9952 70.6048 21.9952H10.9265C4.89192 21.9949 0 17.1021 0 11.0675C0.00027622 5.03309 4.89209 0.141227 10.9265 0.140991H70.6048Z" fill="#6C3600"/>
<path fill-rule="evenodd" clip-rule="evenodd" d="M228.834 6.99994C230.834 6.99999 232.753 7.67702 234.228 9.20315C235.713 10.6872 236.331 12.5781 236.331 14.5004V48.8681C236.331 53.4812 235.144 57.7082 232.707 61.4332C230.337 65.1314 227.034 67.996 222.915 70.0362L222.897 70.0458L222.878 70.0548C218.731 72.0515 214.076 72.9999 208.999 72.9999C203.79 72.9999 199.024 72.0575 194.785 70.0715L194.766 70.0631L194.748 70.0542C190.544 68.028 187.144 65.1833 184.667 61.5026L184.656 61.4859L184.645 61.4691C182.192 57.7355 180.999 53.4957 180.999 48.8681V14.5004C180.999 12.5053 181.691 10.591 183.255 9.12602C184.713 7.70943 186.563 6.99998 188.569 6.99994C190.558 6.99998 192.467 7.66942 193.939 9.17744C195.464 10.6357 196.141 12.5285 196.141 14.5004V48.8681C196.141 50.8252 196.636 52.4475 197.57 53.8521C198.595 55.2732 200.016 56.4601 201.945 57.3844C203.912 58.2559 206.239 58.7356 208.999 58.7356C211.659 58.7356 213.84 58.2562 215.631 57.4083C217.521 56.4878 218.864 55.3119 219.794 53.9124L219.8 53.9035L219.806 53.8951C220.758 52.4807 221.263 50.8451 221.263 48.8681V14.5004C221.263 12.5076 221.954 10.5957 223.514 9.1314C224.973 7.71129 226.825 6.99994 228.834 6.99994Z" fill="#101010"/>
<path fill-rule="evenodd" clip-rule="evenodd" d="M166.014 7.58892C167.957 7.58896 169.869 8.2032 171.368 9.67913C172.875 11.1097 173.511 12.9718 173.511 14.8682C173.511 16.8072 172.814 18.656 171.286 20.062C169.772 21.4547 167.887 22.0003 166.014 22.0004H140.007V32.5363H157.619C159.549 32.5363 161.448 33.1426 162.942 34.596C164.435 35.996 165.116 37.8252 165.116 39.7426C165.116 41.6814 164.424 43.4948 162.99 44.9155L162.942 44.9639L162.891 45.01C161.377 46.4026 159.492 46.9483 157.619 46.9483H140.007V64.9112C140.007 66.9243 139.273 68.7784 137.806 70.2312C136.34 71.6839 134.468 72.411 132.436 72.4111C130.404 72.4111 128.531 71.684 127.065 70.2312C125.598 68.7784 124.864 66.9244 124.864 64.9112V15.0888C124.864 13.0847 125.563 11.1622 127.142 9.69467C128.596 8.29151 130.439 7.58892 132.436 7.58892H166.014Z" fill="#101010"/>
<path fill-rule="evenodd" clip-rule="evenodd" d="M289.832 8.01532C291.638 8.01536 293.463 8.58453 294.873 10.0129L295.008 10.1534L295.231 10.4039C296.311 11.6729 296.867 13.1962 296.953 14.8073C297.05 16.6355 296.491 18.3137 295.517 19.7608L295.461 19.8457L295.398 19.927L280.097 40.1367L295.144 60.8361C296.229 62.2957 296.747 64.0022 296.656 65.8153C296.567 67.5669 295.93 69.1917 294.727 70.5243C293.291 72.1834 291.328 72.8374 289.386 72.8375C288.366 72.8375 287.314 72.6824 286.301 72.2809L286.082 72.1942L285.877 72.0812C284.921 71.5548 284.145 70.8366 283.519 70.0609L283.462 69.9892L283.407 69.915L270.199 51.777L256.172 70.2672L256.015 70.4746L255.83 70.6576C254.399 72.0744 252.568 72.8374 250.534 72.8375C248.602 72.8375 246.586 72.2212 245.118 70.5249L245.077 70.477L245.038 70.4286C243.924 69.0491 243.333 67.408 243.333 65.6318C243.333 63.8559 243.891 62.1995 244.966 60.7787L260.616 40.1074L245.891 19.8714C244.793 18.3945 244.269 16.64 244.468 14.7631C244.643 13.1185 245.278 11.6017 246.381 10.3279L246.429 10.2729L246.479 10.2191C247.898 8.70518 249.765 8.01532 251.722 8.01532C253.627 8.01537 255.824 8.5644 257.319 10.435L257.461 10.6203L257.47 10.6323L257.479 10.6442L270.497 28.5372L284.119 10.585L284.238 10.429L284.372 10.2861C285.855 8.71191 287.802 8.01532 289.832 8.01532Z" fill="#101010"/>
<path fill-rule="evenodd" clip-rule="evenodd" d="M312.293 7.58892C314.283 7.58896 316.192 8.25879 317.664 9.76821C319.188 11.2261 319.864 13.1178 319.864 15.0888V64.9112C319.864 66.9066 319.143 68.7454 317.702 70.1923C316.225 71.7295 314.3 72.411 312.293 72.4111C310.261 72.4111 308.389 71.6839 306.922 70.2312C305.456 68.7784 304.722 66.9243 304.722 64.9112V15.0888C304.722 13.0992 305.411 11.1904 306.965 9.72696C308.426 8.30222 310.28 7.58893 312.293 7.58892Z" fill="#101010"/>
</svg>
